<svg width="152" height="47" viewBox="0 0 152 47" fill="none" xmlns="http://www.w3.org/2000/svg">
<path d="M64.7955 22.8281H68.0546C68.0075 19.9616 65.6515 17.9826 62.0705 17.9826C58.5443 17.9826 55.9606 19.9302 55.9763 22.8516C55.9685 25.2233 57.6412 26.5819 60.3584 27.2337L62.1097 27.6735C63.861 28.0976 64.8348 28.6002 64.8427 29.684C64.8348 30.8619 63.7196 31.663 61.9919 31.663C60.2249 31.663 58.9527 30.8462 58.8428 29.2363H55.5522C55.6386 32.7153 58.1281 34.5137 62.0312 34.5137C65.9578 34.5137 68.2667 32.6368 68.2745 29.6918C68.2667 27.0139 66.2484 25.5924 63.4526 24.9642L62.0076 24.6186C60.6097 24.2966 59.4396 23.7783 59.4632 22.6239C59.4632 21.5873 60.382 20.8255 62.0469 20.8255C63.6725 20.8255 64.6699 21.5637 64.7955 22.8281Z" fill="#0A58C4"/>
<path d="M72.6966 34.286L73.8902 30.6185H79.6938L80.8875 34.286H84.5314L78.987 18.2025H74.6049L69.0526 34.286H72.6966ZM74.7541 27.9641L76.7331 21.8778H76.8588L78.8378 27.9641H74.7541Z" fill="#0A58C4"/>
<path d="M86.1969 34.286H89.5974V27.6421H96.1392V24.8385H89.5974V21.0061H96.846V18.2025H86.1969V34.286Z" fill="#0A58C4"/>
<path d="M107.588 22.8281H110.847C110.8 19.9616 108.444 17.9826 104.863 17.9826C101.337 17.9826 98.753 19.9302 98.7687 22.8516C98.7608 25.2233 100.434 26.5819 103.151 27.2337L104.902 27.6735C106.653 28.0976 107.627 28.6002 107.635 29.684C107.627 30.8619 106.512 31.663 104.784 31.663C103.017 31.663 101.745 30.8462 101.635 29.2363H98.3446C98.431 32.7153 100.92 34.5137 104.824 34.5137C108.75 34.5137 111.059 32.6368 111.067 29.6918C111.059 27.0139 109.041 25.5924 106.245 24.9642L104.8 24.6186C103.402 24.2966 102.232 23.7783 102.256 22.6239C102.256 21.5873 103.174 20.8255 104.839 20.8255C106.465 20.8255 107.462 21.5637 107.588 22.8281Z" fill="#0A58C4"/>
<path d="M116.484 18.2025H113.084V34.286H116.484V18.2025Z" fill="#0A58C4"/>
<path d="M119.012 18.2025V34.286H122.31V23.7783H122.444L126.606 34.2074H128.852L133.014 23.8176H133.148V34.286H136.446V18.2025H132.252L127.823 29.0086H127.635L123.205 18.2025H119.012Z" fill="#0A58C4"/>
<path d="M147.702 22.8281H150.961C150.914 19.9616 148.558 17.9826 144.977 17.9826C141.451 17.9826 138.867 19.9302 138.883 22.8516C138.875 25.2233 140.548 26.5819 143.265 27.2337L145.017 27.6735C146.768 28.0976 147.742 28.6002 147.749 29.684C147.742 30.8619 146.626 31.663 144.899 31.663C143.132 31.663 141.859 30.8462 141.75 29.2363H138.459C138.545 32.7153 141.035 34.5137 144.938 34.5137C148.865 34.5137 151.173 32.6368 151.181 29.6918C151.173 27.0139 149.155 25.5924 146.359 24.9642L144.914 24.6186C143.517 24.2966 142.346 23.7783 142.37 22.6239C142.37 21.5873 143.289 20.8255 144.954 20.8255C146.579 20.8255 147.577 21.5637 147.702 22.8281Z" fill="#0A58C4"/>
<g clip-path="url(#clip0)">
<path d="M23.3587 45.3018C11.2331 45.3018 1.38489 35.4536 1.38489 23.328C1.38489 11.2024 11.2331 1.35413 23.3587 1.35413H42.0396C43.8554 1.35413 45.3018 2.83136 45.3018 4.61635V23.2972C45.3018 35.4844 35.4844 45.3018 23.3587 45.3018Z" fill="white"/>
<path d="M23.3588 46.6867C10.4637 46.6867 0 36.223 0 23.3588C0 10.4945 10.4637 0 23.3588 0H42.0396C44.6248 0 46.6867 2.09275 46.6867 4.64713V23.328C46.6867 36.223 36.223 46.6867 23.3588 46.6867ZM23.3588 2.76981C12.0025 2.76981 2.76981 12.0025 2.76981 23.3588C2.76981 34.715 12.0025 43.9477 23.3588 43.9477C34.715 43.9477 43.9477 34.715 43.9477 23.3588V4.64713C43.9477 3.60076 43.086 2.76981 42.0704 2.76981H23.3588Z" fill="#0A58C4"/>
<path d="M21.6046 44.5325C10.4946 44.5325 1.50806 35.546 1.50806 24.436C1.50806 13.3259 10.4946 4.33942 21.6046 4.33942H39.3622C40.6547 4.33942 41.7011 5.38579 41.7011 6.67837V24.436C41.7011 35.5152 32.6838 44.5325 21.6046 44.5325Z" fill="#0A58C4"/>
<path d="M8.06324 28.3444C17.1728 38.3158 26.1594 37.5771 35.1151 28.7137C35.7921 28.0367 36.8693 28.7753 36.4384 29.6678C34.4996 33.7917 30.3448 39.3006 21.9431 39.6083C12.7719 39.9469 8.52487 33.6994 6.67833 29.3293C6.30902 28.406 7.41695 27.6058 8.06324 28.3444Z" fill="white"/>
</g>
<defs>
<clipPath id="clip0">
<rect width="46.6867" height="46.6867" fill="white"/>
</clipPath>
</defs>
</svg>
